# xmcd CD database file
#
# Track frame offsets:
#	150
#	2375
#	28925
#	35540
#	53297
#	61077
#	82317
#	108712
#	119040
#	144847
#	164650
#	197372
#	211785
#	237417
#
# Disc length: 3192 seconds
#
# Revision: 0
# Processed by: cddbd v1.5.2PL0 Copyright (c) Steve Scherf et al.
# Submitted via: CDex 1.51
#
DISCID=ba0c760e
DTITLE=Alberto Bertoni, Enrico Trebbi, Ivan Valentini - la casa Azzurra
DYEAR=1997
DGENRE=Jazz
TTITLE0=Prologo
TTITLE1=La casa azzurra
TTITLE2=Piccole Magie
TTITLE3=Viaggiatori
TTITLE4=Portogalli
TTITLE5=La donna delle pulizie
TTITLE6=Avantindre
TTITLE7=Questioni di volo
TTITLE8=Thanksgiving days
TTITLE9=Stanze a monte
TTITLE10=Compleanno, e lettera a Guccini
TTITLE11=Banchetti invernali
TTITLE12=Aranzone
TTITLE13=Epilogo
EXTD=YEAR: 1997
EXTT0=
EXTT1=
EXTT2=
EXTT3=
EXTT4=
EXTT5=
EXTT6=
EXTT7=
EXTT8=
EXTT9=
EXTT10=
EXTT11=
EXTT12=
EXTT13=
PLAYORDER=
